<svg width="62" height="62" viewBox="0 0 50 51" fill="none" xmlns="http://www.w3.org/2000/svg">
<path d="M24.9998 4.25C13.4998 4.25 4.1665 13.77 4.1665 25.5C4.1665 37.23 13.4998 46.75 24.9998 46.75C36.4998 46.75 45.8332 37.23 45.8332 25.5C45.8332 13.77 36.4998 4.25 24.9998 4.25ZM24.9998 10.625C28.4582 10.625 31.2498 13.4725 31.2498 17C31.2498 20.5275 28.4582 23.375 24.9998 23.375C21.5415 23.375 18.7498 20.5275 18.7498 17C18.7498 13.4725 21.5415 10.625 24.9998 10.625ZM24.9998 40.8C19.7915 40.8 15.1873 38.08 12.4998 33.9575C12.5623 29.7287 20.8332 27.4125 24.9998 27.4125C29.1457 27.4125 37.4373 29.7287 37.4998 33.9575C34.8123 38.08 30.2082 40.8 24.9998 40.8Z" fill="#FDD8D8"/>
</svg>
