<svg width="59" height="77" viewBox="0 0 59 77" fill="none" xmlns="http://www.w3.org/2000/svg">
<path d="M29.5014 24.0625C36.2925 24.0625 41.793 18.6785 41.793 12.0312C41.793 5.38398 36.2925 0 29.5014 0C22.7102 0 17.2097 5.38398 17.2097 12.0312C17.2097 18.6785 22.7102 24.0625 29.5014 24.0625ZM21.2967 61.4797L25.23 56.6672L15.7808 48.9672L8.72845 57.5996C6.97689 59.7352 6.9308 62.773 8.60554 64.9688L15.9805 74.5938C17.1943 76.1729 19.0381 77 20.8972 77C22.1725 77 23.4785 76.609 24.5847 75.7969C27.3042 73.8117 27.842 70.0369 25.8139 67.375L21.2967 61.4797ZM43.2219 48.9672L33.7727 56.6672L37.7061 61.4797L33.1889 67.375C31.1607 70.0369 31.6985 73.8117 34.418 75.7969C35.5243 76.609 36.8149 77 38.1055 77C39.98 77 41.8238 76.1729 43.0222 74.5938L50.3972 64.9688C52.0719 62.773 52.0259 59.7352 50.2743 57.5996L43.2219 48.9672V48.9672ZM57.8798 21.8066C55.9285 19.0846 52.1027 18.4379 49.3217 20.3328L43.0837 24.6189C34.9865 30.1834 24.0008 30.1834 15.9191 24.6189L9.68106 20.3479C6.90007 18.4379 3.07429 19.0996 1.12298 21.8066C-0.828319 24.5287 -0.152277 28.2734 2.61335 30.1834L8.85137 34.4695C11.4633 36.2592 14.2904 37.6127 17.2097 38.6654V43.3125H41.793V38.6805C44.7123 37.6277 47.5394 36.2742 50.1514 34.4846L56.3894 30.1984C59.1704 28.2734 59.8311 24.5287 57.8798 21.8066Z" fill="white"/>
</svg>
