<svg width="71" height="73" viewBox="0 0 71 73" fill="none" xmlns="http://www.w3.org/2000/svg">
<g clip-path="url(#clip0)">
<path d="M70.794 36.4753C61.0912 36.3541 53.2562 28.2499 53.2562 18.2452C43.5256 18.2452 35.6449 10.191 35.5256 0.216212C31.7454 -0.374062 27.8806 0.258985 24.4707 2.04406L14.8843 7.06566C11.4334 8.87389 8.62796 11.7593 6.87047 15.3081L2.00309 25.1289C0.240369 28.6867 -0.381937 32.7269 0.225316 36.6706L1.90047 47.545C2.50712 51.4848 4.31093 55.1262 7.05352 57.9475L14.6486 65.7551C17.3825 68.567 20.9121 70.4167 24.7314 71.039L35.3689 72.7714C39.1838 73.393 43.093 72.7557 46.5362 70.9521L56.1226 65.9319C59.5732 64.1233 62.3785 61.238 64.1364 57.6894L69.0038 47.8687C70.7455 44.3555 71.3626 40.3719 70.794 36.4753V36.4753ZM24.4055 52.4697C21.9552 52.4697 19.968 50.4265 19.968 47.9072C19.968 45.3878 21.9552 43.3447 24.4055 43.3447C26.8559 43.3447 28.843 45.3878 28.843 47.9072C28.843 50.4265 26.8559 52.4697 24.4055 52.4697ZM28.843 29.6572C26.3927 29.6572 24.4055 27.614 24.4055 25.0947C24.4055 22.5753 26.3927 20.5322 28.843 20.5322C31.2934 20.5322 33.2805 22.5753 33.2805 25.0947C33.2805 27.614 31.2934 29.6572 28.843 29.6572ZM51.0305 47.9072C48.5802 47.9072 46.593 45.864 46.593 43.3447C46.593 40.8253 48.5802 38.7822 51.0305 38.7822C53.4809 38.7822 55.468 40.8253 55.468 43.3447C55.468 45.864 53.4809 47.9072 51.0305 47.9072Z" fill="white"/>
</g>
<defs>
<clipPath id="clip0">
<rect width="71" height="73" fill="white"/>
</clipPath>
</defs>
</svg>
