<svg width="70" height="72" viewBox="0 0 70 72" fill="none" xmlns="http://www.w3.org/2000/svg">
<g clip-path="url(#clip0)">
<path d="M69.3709 13.5353C67.6506 7.1762 62.01 1.99558 54.9944 0.355889C49.9647 -0.819736 45.1506 1.07308 41.0662 3.7773C40.5584 4.11339 39.9787 4.30183 39.4256 4.54792L43.8506 7.1087C45.01 7.77948 45.3475 9.17167 44.6006 10.2179C43.9037 11.1953 42.3709 11.6045 41.1459 10.8929L25.4412 1.80573C22.2069 0.279952 18.6631 -0.500517 15.0022 0.355889C7.98656 1.99698 2.34594 7.1762 0.625626 13.5353C-0.957187 19.3881 0.560001 24.8992 3.985 29.0645C7.635 33.504 9.09125 38.7198 9.65531 44.1606C10.3428 50.7925 11.2694 57.4018 12.9272 63.8931L14.1459 68.6673C14.6444 70.6178 16.5662 72.0001 18.7819 72.0001C20.9647 72.0001 22.8678 70.6571 23.3975 68.7432L28.7834 49.2779C29.4959 46.7017 32.0584 44.8961 34.9959 44.8961C37.9334 44.8961 40.4959 46.7031 41.2084 49.2779L46.5944 68.7432C47.1241 70.6571 49.0272 72.0001 51.21 72.0001C53.4256 72.0001 55.3475 70.6178 55.8459 68.6673L57.0647 63.8931C58.7225 57.4032 59.6475 50.7925 60.3366 44.1606C60.9006 38.7184 62.3569 33.504 66.0069 29.0645C69.4366 24.9006 70.9537 19.3895 69.3709 13.5353V13.5353Z" fill="white"/>
</g>
<defs>
<clipPath id="clip0">
<rect width="70" height="72" fill="white"/>
</clipPath>
</defs>
</svg>
