<svg width="64" height="70" viewBox="0 0 64 70" fill="none" xmlns="http://www.w3.org/2000/svg">
<path d="M32 35C42.1 35 50.2857 27.166 50.2857 17.5C50.2857 7.83398 42.1 0 32 0C21.9 0 13.7143 7.83398 13.7143 17.5C13.7143 27.166 21.9 35 32 35ZM14.8571 57.9688C14.8571 59.7871 16.3857 61.25 18.2857 61.25C20.1857 61.25 21.7143 59.7871 21.7143 57.9688C21.7143 56.1504 20.1857 54.6875 18.2857 54.6875C16.3857 54.6875 14.8571 56.1504 14.8571 57.9688ZM45.7143 39.457V46.1563C50.9286 47.168 54.8571 51.5977 54.8571 56.875V62.5762C54.8571 63.6152 54.0857 64.5176 53.0143 64.7227L48.4143 65.5977C47.8 65.7207 47.2 65.3379 47.0714 64.7363L46.6286 62.5898C46.5 62.002 46.9 61.4141 47.5286 61.3047L50.2857 60.7715V56.875C50.2857 48.2891 36.5714 47.9746 36.5714 57.1348V60.7852L39.3286 61.3184C39.9429 61.4414 40.3429 62.0156 40.2286 62.6035L39.7857 64.75C39.6571 65.3379 39.0571 65.7207 38.4429 65.6113L33.9857 65.0371C32.8571 64.8867 32.0143 63.9707 32.0143 62.8633V56.875C32.0143 51.5977 35.9429 47.1816 41.1571 46.1563V39.9766C40.8429 40.0723 40.5286 40.127 40.2143 40.2363C37.6429 41.0977 34.8857 41.5762 32.0143 41.5762C29.1429 41.5762 26.3857 41.0977 23.8143 40.2363C22.7571 39.8809 21.6857 39.6621 20.5857 39.5254V50.6816C23.8857 51.625 26.3 54.5234 26.3 57.9824C26.3 62.207 22.7143 65.6387 18.3 65.6387C13.8857 65.6387 10.3 62.207 10.3 57.9824C10.3 54.5234 12.7143 51.625 16.0143 50.6816V39.6895C6.92857 41.1523 0 48.6445 0 57.75V63.875C0 67.252 2.87143 70 6.4 70H57.6C61.1286 70 64 67.252 64 63.875V57.75C64 47.9062 55.8857 39.9355 45.7143 39.457V39.457Z" fill="white"/>
</svg>
